<svg width="72" height="72" viewBox="0 0 72 72" fill="none" xmlns="http://www.w3.org/2000/svg">
<rect opacity="0.1" width="72" height="72" rx="6" fill="#1FDB84"/>
<path fill-rule="evenodd" clip-rule="evenodd" d="M53.6 49.4C54.9255 49.4 56 48.3255 56 47V21.4C56 20.0745 54.9255 19 53.6 19H18.4C17.0745 19 16 20.0745 16 21.4V47C16 48.3255 17.0745 49.4 18.4 49.4H19.2V51C19.2 51.8837 19.9163 52.6 20.8 52.6H24C24.8837 52.6 25.6 51.8837 25.6 51V49.4H46.4V51C46.4 51.8837 47.1163 52.6 48 52.6H51.2C52.0837 52.6 52.8 51.8837 52.8 51V49.4H53.6ZM47.919 35H44C43.5582 35 43.2 34.6418 43.2 34.2C43.2 33.7582 43.5582 33.4 44 33.4H47.919C47.4945 29.6029 44.1779 26.7986 40.363 27.0112C36.5481 27.2238 33.5636 30.3792 33.5636 34.2C33.5636 38.0208 36.5481 41.1763 40.363 41.3888C44.1779 41.6014 47.4945 38.7971 47.919 35ZM24 51V49.4H20.8V51H24ZM23.2 23.8C23.6418 23.8 24 24.1582 24 24.6V43.8C24 44.2418 23.6418 44.6 23.2 44.6C22.7582 44.6 22.4 44.2418 22.4 43.8V41.4H21.6C21.1582 41.4 20.8 41.0418 20.8 40.6C20.8 40.1582 21.1582 39.8 21.6 39.8H22.4V35H21.6C21.1582 35 20.8 34.6418 20.8 34.2C20.8 33.7582 21.1582 33.4 21.6 33.4H22.4V28.6H21.6C21.1582 28.6 20.8 28.2418 20.8 27.8C20.8 27.3582 21.1582 27 21.6 27H22.4V24.6C22.4 24.1582 22.7582 23.8 23.2 23.8ZM49.6 34.2C49.6 29.3399 45.6601 25.4 40.8 25.4C35.9399 25.4 32 29.3399 32 34.2C32 39.0601 35.9399 43 40.8 43C45.6601 43 49.6 39.0601 49.6 34.2ZM48 51V49.4H51.2V51H48Z" fill="#1FDB84"/>
</svg>
