<svg width="150" height="53" viewBox="0 0 150 53" fill="none" xmlns="http://www.w3.org/2000/svg">
<path d="M64.7783 27.1552C64.7783 26.6571 64.6025 26.2762 64.251 26.0126C63.8994 25.743 63.2666 25.4618 62.3525 25.1688C61.4385 24.87 60.7148 24.577 60.1816 24.2899C58.7285 23.5048 58.002 22.4471 58.002 21.1171C58.002 20.4257 58.1953 19.8104 58.582 19.2714C58.9746 18.7264 59.5342 18.3016 60.2607 17.9969C60.9932 17.6923 61.8135 17.5399 62.7217 17.5399C63.6357 17.5399 64.4502 17.7069 65.165 18.0409C65.8799 18.369 66.4336 18.8348 66.8262 19.4384C67.2246 20.0419 67.4238 20.7274 67.4238 21.495H64.7871C64.7871 20.9091 64.6025 20.455 64.2334 20.1327C63.8643 19.8046 63.3457 19.6405 62.6777 19.6405C62.0332 19.6405 61.5322 19.7782 61.1748 20.0536C60.8174 20.3231 60.6387 20.6805 60.6387 21.1259C60.6387 21.5419 60.8467 21.8905 61.2627 22.1718C61.6846 22.453 62.3027 22.7167 63.1172 22.9628C64.6172 23.4139 65.71 23.9735 66.3955 24.6415C67.0811 25.3094 67.4238 26.1415 67.4238 27.1376C67.4238 28.245 67.0049 29.1151 66.167 29.7479C65.3291 30.3749 64.2012 30.6884 62.7832 30.6884C61.7988 30.6884 60.9023 30.5096 60.0938 30.1522C59.2852 29.7889 58.667 29.2938 58.2393 28.6669C57.8174 28.0399 57.6064 27.3134 57.6064 26.4872H60.252C60.252 27.8993 61.0957 28.6053 62.7832 28.6053C63.4102 28.6053 63.8994 28.4794 64.251 28.2274C64.6025 27.9696 64.7783 27.6122 64.7783 27.1552ZM71.4316 21.0028L71.5107 22.0663C72.1846 21.2401 73.0957 20.827 74.2441 20.827C75.4688 20.827 76.3096 21.3104 76.7666 22.2772C77.4346 21.3104 78.3867 20.827 79.623 20.827C80.6543 20.827 81.4219 21.1288 81.9258 21.7323C82.4297 22.33 82.6816 23.2323 82.6816 24.4393V30.5126H80.1328V24.4481C80.1328 23.9091 80.0273 23.5165 79.8164 23.2704C79.6055 23.0184 79.2334 22.8925 78.7002 22.8925C77.9385 22.8925 77.4111 23.2557 77.1182 23.9823L77.127 30.5126H74.5869V24.4569C74.5869 23.9061 74.4785 23.5077 74.2617 23.2616C74.0449 23.0155 73.6758 22.8925 73.1543 22.8925C72.4336 22.8925 71.9121 23.1913 71.5898 23.7889V30.5126H69.0498V21.0028H71.4316ZM90.1523 30.5126C90.0352 30.2841 89.9502 29.9999 89.8975 29.66C89.2822 30.3456 88.4824 30.6884 87.498 30.6884C86.5664 30.6884 85.793 30.4188 85.1777 29.8798C84.5684 29.3407 84.2637 28.661 84.2637 27.8407C84.2637 26.8329 84.6357 26.0594 85.3799 25.5204C86.1299 24.9813 87.2109 24.7089 88.623 24.703H89.792V24.1581C89.792 23.7186 89.6777 23.3671 89.4492 23.1034C89.2266 22.8397 88.8721 22.7079 88.3857 22.7079C87.958 22.7079 87.6211 22.8104 87.375 23.0155C87.1348 23.2206 87.0146 23.5018 87.0146 23.8593H84.4746C84.4746 23.3085 84.6445 22.7987 84.9844 22.33C85.3242 21.8612 85.8047 21.495 86.4258 21.2313C87.0469 20.9618 87.7441 20.827 88.5176 20.827C89.6895 20.827 90.6182 21.1229 91.3037 21.7147C91.9951 22.3007 92.3408 23.1268 92.3408 24.1932V28.3153C92.3467 29.2177 92.4727 29.9003 92.7188 30.3632V30.5126H90.1523ZM88.0518 28.746C88.4268 28.746 88.7725 28.6639 89.0889 28.4999C89.4053 28.33 89.6396 28.1044 89.792 27.8231V26.1884H88.8428C87.5713 26.1884 86.8945 26.6278 86.8125 27.5067L86.8037 27.6561C86.8037 27.9725 86.915 28.2333 87.1377 28.4384C87.3604 28.6434 87.665 28.746 88.0518 28.746ZM99.6357 23.3846C99.29 23.3378 98.9854 23.3143 98.7217 23.3143C97.7607 23.3143 97.1309 23.6395 96.832 24.2899V30.5126H94.292V21.0028H96.6914L96.7617 22.1366C97.2715 21.2635 97.9775 20.827 98.8799 20.827C99.1611 20.827 99.4248 20.8651 99.6709 20.9413L99.6357 23.3846ZM104.347 18.6649V21.0028H105.973V22.8661H104.347V27.6122C104.347 27.9637 104.414 28.2157 104.549 28.368C104.684 28.5204 104.941 28.5966 105.322 28.5966C105.604 28.5966 105.853 28.576 106.069 28.535V30.4598C105.571 30.6122 105.059 30.6884 104.531 30.6884C102.75 30.6884 101.842 29.7889 101.807 27.9901V22.8661H100.418V21.0028H101.807V18.6649H104.347ZM122.452 30.5126H119.815V25.0282H114.674V30.5126H112.037V17.7157H114.674V22.9012H119.815V17.7157H122.452V30.5126ZM124.201 25.6698C124.201 24.7264 124.383 23.8856 124.746 23.1473C125.109 22.4091 125.631 21.8378 126.311 21.4335C126.996 21.0292 127.79 20.827 128.692 20.827C129.976 20.827 131.021 21.2196 131.83 22.0048C132.645 22.7899 133.099 23.8563 133.192 25.204L133.21 25.8544C133.21 27.3134 132.803 28.4852 131.988 29.37C131.174 30.2489 130.081 30.6884 128.71 30.6884C127.339 30.6884 126.243 30.2489 125.423 29.37C124.608 28.4911 124.201 27.2958 124.201 25.7841V25.6698ZM126.741 25.8544C126.741 26.7567 126.911 27.4481 127.251 27.9286C127.591 28.4032 128.077 28.6405 128.71 28.6405C129.325 28.6405 129.806 28.4061 130.151 27.9374C130.497 27.4628 130.67 26.7069 130.67 25.6698C130.67 24.785 130.497 24.0995 130.151 23.6132C129.806 23.1268 129.319 22.8837 128.692 22.8837C128.071 22.8837 127.591 23.1268 127.251 23.6132C126.911 24.0936 126.741 24.8407 126.741 25.8544ZM139.925 27.8846C139.925 27.5741 139.77 27.3309 139.459 27.1552C139.154 26.9735 138.662 26.8124 137.982 26.6718C135.721 26.1971 134.59 25.2362 134.59 23.7889C134.59 22.9452 134.938 22.2421 135.636 21.6796C136.339 21.1112 137.256 20.827 138.387 20.827C139.594 20.827 140.558 21.1112 141.278 21.6796C142.005 22.2479 142.368 22.9862 142.368 23.8944H139.828C139.828 23.5311 139.711 23.2323 139.477 22.9979C139.242 22.7577 138.876 22.6376 138.378 22.6376C137.95 22.6376 137.619 22.7343 137.385 22.9276C137.15 23.121 137.033 23.3671 137.033 23.6659C137.033 23.9471 137.165 24.1757 137.429 24.3514C137.698 24.5214 138.149 24.6708 138.782 24.7997C139.415 24.9227 139.948 25.0634 140.382 25.2216C141.724 25.7137 142.395 26.5663 142.395 27.7792C142.395 28.6464 142.022 29.3495 141.278 29.8885C140.534 30.4218 139.573 30.6884 138.396 30.6884C137.599 30.6884 136.89 30.5477 136.269 30.2665C135.653 29.9794 135.17 29.5897 134.818 29.0975C134.467 28.5995 134.291 28.0634 134.291 27.4891H136.699C136.723 27.9403 136.89 28.286 137.2 28.5262C137.511 28.7665 137.927 28.8866 138.448 28.8866C138.935 28.8866 139.301 28.7958 139.547 28.6141C139.799 28.4266 139.925 28.1835 139.925 27.8846ZM147.079 18.6649V21.0028H148.705V22.8661H147.079V27.6122C147.079 27.9637 147.146 28.2157 147.281 28.368C147.416 28.5204 147.674 28.5966 148.055 28.5966C148.336 28.5966 148.585 28.576 148.802 28.535V30.4598C148.304 30.6122 147.791 30.6884 147.264 30.6884C145.482 30.6884 144.574 29.7889 144.539 27.9901V22.8661H143.15V21.0028H144.539V18.6649H147.079Z" fill="white"/>
<g filter="url(#filter0_ddi)">
<rect x="4" y="2" width="37.6296" height="44.5126" rx="8.78024" fill="white"/>
<rect x="4" y="2" width="37.6296" height="44.5126" rx="8.78024" fill="url(#paint0_linear)" fill-opacity="0.1" style="mix-blend-mode:overlay"/>
</g>
<path fill-rule="evenodd" clip-rule="evenodd" d="M15.1683 22.0792V21.1414C15.1683 20.8857 15.348 20.6725 15.5698 20.6725H30.687C30.9097 20.6725 31.0885 20.8824 31.0885 21.1414V22.0792C29.6621 22.0795 28.3818 22.8163 27.5066 23.9843C26.6313 22.816 25.3505 22.0792 23.9235 22.0792H22.3332C20.9067 22.0792 19.6261 22.8159 18.7507 23.984C17.8754 22.8159 16.5948 22.0792 15.1683 22.0792ZM32.6805 19.2658H13.5762C13.1366 19.2658 12.7802 18.8459 12.7802 18.328V10.3566C12.7802 9.83862 13.1366 9.41875 13.5762 9.41875H17.1583C17.5979 9.41875 17.9543 9.83862 17.9543 10.3566V13.17H19.9443V10.3566C19.9443 9.83862 20.3007 9.41875 20.7403 9.41875H25.5164C25.956 9.41875 26.3124 9.83862 26.3124 10.3566V13.17H28.3024V10.3566C28.3024 9.83862 28.6588 9.41875 29.0984 9.41875H32.6805C33.1201 9.41875 33.4765 9.83862 33.4765 10.3566V18.328C33.4765 18.8459 33.1201 19.2658 32.6805 19.2658ZM27.5066 26.0015C28.3624 24.4853 29.8259 23.486 31.4874 23.486C31.927 23.486 32.2834 23.9059 32.2834 24.4238V38.491C32.2834 39.009 31.927 39.4288 31.4874 39.4288H27.5065C27.0668 39.4288 26.7105 39.009 26.7105 38.491V29.1129C26.7105 27.0406 25.2849 25.3616 23.5255 25.3616H22.7313C20.9724 25.3616 19.5464 27.0412 19.5464 29.1129V38.491C19.5464 39.0085 19.1905 39.4282 18.7514 39.4288L18.7512 39.4288H14.7703C14.3307 39.4288 13.9743 39.009 13.9743 38.491V24.4238C13.9743 23.9059 14.3307 23.486 14.7703 23.486C16.4316 23.486 17.8949 24.485 18.7508 26.001C19.6067 24.485 21.07 23.486 22.7313 23.486H23.5255C25.1874 23.486 26.6509 24.4851 27.5066 26.0015ZM28.3025 34.6979L30.5998 32.5928C30.6293 32.5658 30.6599 32.5416 30.6914 32.5202V30.196L28.3025 32.3851V34.6979ZM28.3025 30.0089L30.5998 27.9037C30.6293 27.8767 30.6599 27.8525 30.6914 27.8311V25.4554C30.6914 25.4554 30.3451 25.5505 29.8713 25.8797C28.9324 26.5322 28.3025 27.736 28.3025 29.1128V30.0089ZM28.3025 37.0741V37.5532H30.6914V34.885L28.3025 37.0741ZM15.5663 32.5207C15.5974 32.542 15.6277 32.566 15.657 32.5928L17.9552 34.6987V32.3858L15.5663 30.1967V32.5207ZM15.5663 27.8317C15.5975 27.8529 15.6278 27.8769 15.657 27.9037L17.9552 30.0096V29.1129C17.9552 27.3619 16.9365 25.8909 15.5663 25.4775V27.8317ZM15.5663 34.8858V37.5532H17.9552V37.0749L15.5663 34.8858Z" fill="url(#paint1_linear)"/>
<defs>
<filter id="filter0_ddi" x="0.237039" y="0.74568" width="45.1555" height="52.0385" filterUnits="userSpaceOnUse" color-interpolation-filters="sRGB">
<feFlood flood-opacity="0" result="BackgroundImageFix"/>
<feColorMatrix in="SourceAlpha" type="matrix" values="0 0 0 0 0 0 0 0 0 0 0 0 0 0 0 0 0 0 127 0"/>
<feOffset dy="2.50864"/>
<feGaussianBlur stdDeviation="1.88148"/>
<feColorMatrix type="matrix" values="0 0 0 0 0 0 0 0 0 0 0 0 0 0 0 0 0 0 0.05 0"/>
<feBlend mode="normal" in2="BackgroundImageFix" result="effect1_dropShadow"/>
<feColorMatrix in="SourceAlpha" type="matrix" values="0 0 0 0 0 0 0 0 0 0 0 0 0 0 0 0 0 0 127 0"/>
<feOffset dy="0.62716"/>
<feGaussianBlur stdDeviation="0.94074"/>
<feColorMatrix type="matrix" values="0 0 0 0 0 0 0 0 0 0 0 0 0 0 0 0 0 0 0.1 0"/>
<feBlend mode="normal" in2="effect1_dropShadow" result="effect2_dropShadow"/>
<feBlend mode="normal" in="SourceGraphic" in2="effect2_dropShadow" result="shape"/>
<feColorMatrix in="SourceAlpha" type="matrix" values="0 0 0 0 0 0 0 0 0 0 0 0 0 0 0 0 0 0 127 0" result="hardAlpha"/>
<feOffset dy="0.62716"/>
<feComposite in2="hardAlpha" operator="arithmetic" k2="-1" k3="1"/>
<feColorMatrix type="matrix" values="0 0 0 0 1 0 0 0 0 1 0 0 0 0 1 0 0 0 0.1 0"/>
<feBlend mode="normal" in2="shape" result="effect3_innerShadow"/>
</filter>
<linearGradient id="paint0_linear" x1="4" y1="2" x2="4" y2="46.5126" gradientUnits="userSpaceOnUse">
<stop stop-color="white" stop-opacity="0.5"/>
<stop offset="1" stop-color="white" stop-opacity="0.01"/>
</linearGradient>
<linearGradient id="paint1_linear" x1="4.19988" y1="23.1421" x2="30.6934" y2="43.1196" gradientUnits="userSpaceOnUse">
<stop stop-color="#1FDB84"/>
<stop offset="1" stop-color="#1FDB84"/>
</linearGradient>
</defs>
</svg>
